# xmcd
#
# Track frame offsets:
#	150
#	13107
#	24300
#	38980
#	48852
#	60679
#	73940
#	86124
#	100832
#	115144
#	127702
#	139165
#	151371
#	162918
#	174691
#	194177
#	206593
#	216948
#	229083
#	241259
#	254946
#	267018
#	279628
#	292784
#	305809
#
# Disc length: 4253 seconds
#
# Revision: 1
# Processed by: cddbd v1.5.2PL0 Copyright (c) Steve Scherf et al.
# Submitted via: audiograbber 1.83.01
#
DISCID=78109b19
DTITLE=Various Artist - Bluesology cd1
DYEAR=2013
DGENRE=Blues
TTITLE0=Muddy Waters - I'm Your Hoochie Coochie Man
TTITLE1=Howlin' Wolf - The Red Rooster
TTITLE2=Amos Milburn - One Scotch, One Bourbon, One Beer
TTITLE3=John Lee Hooker - Dimples
TTITLE4=Buddy Guy - Ten Years Ago
TTITLE5=Albert King - Don't Throw Your Love On Me So Strong
TTITLE6=Junior Wells - Two Headed Woman
TTITLE7=Bo Diddley - I'm Bad
TTITLE8=Elmore James - Dust My Broom
TTITLE9=Big Joe Williams - Baby Please Don't Go
TTITLE10=Chuck Wills - C.C. Rider
TTITLE11=Bobby "Blue" Bland - It's My Life
TTITLE12=Little Walter - My Babe
TTITLE13=Freddie King - Hide Away
TTITLE14=Champion Jack Dupree - Evil Woman
TTITLE15=Jimmy Reed  - I Love You Baby
TTITLE16=Willie Dixon and Memphis Slim - Good Understanding
TTITLE17=Lightnin' Hopkins - Shotgun
TTITLE18=Jimmy Rogers - What Have I Done?
TTITLE19=Big Bill Bronzy - I Love My Whiskey
TTITLE20=Otis Rush - You Know My Love
TTITLE21=Sonny Boy Williamson - One Way Out
TTITLE22=Magic Sam - All Your Love
TTITLE23=Blind Willie McTell - She Don't Treat Me Good No More
TTITLE24=B.B. King - When My Heart Beats Like A Hammer
EXTD=
EXTT0=
EXTT1=
EXTT2=
EXTT3=
EXTT4=
EXTT5=
EXTT6=
EXTT7=
EXTT8=
EXTT9=
EXTT10=
EXTT11=
EXTT12=
EXTT13=
EXTT14=
EXTT15=
EXTT16=
EXTT17=
EXTT18=
EXTT19=
EXTT20=
EXTT21=
EXTT22=
EXTT23=
EXTT24=
PLAYORDER=
